<svg xmlns="http://www.w3.org/2000/svg" width="60" height="54" viewBox="0 0 60 54">
    <g fill="none" fill-rule="evenodd">
        <g>
            <g>
                <g transform="translate(-85 -2380) translate(0 2218) translate(85 162)">
                    <path fill="#161616" fill-rule="nonzero" d="M14.496 4.969c-.3.658-.377 1.396-.221 2.103.318.4.764.678 1.264.785h.12c.298.133.603.25.913.352-1.394 3.411-4.203 10.405-4.143 10.827 0 .252 2.087 1.007 4.274 1.852-.17.201-.271.342-.261.392.31.647.669 1.27 1.073 1.862-.037 1.156.067 2.311.311 3.441-2.352-.31-4.72-.49-7.092-.543-.684-.011-1.31.384-1.595 1.006l-.12.252 1.093 2.425s4.845.513 9.961 1.248c-3.842-.534-7.513-.936-9.118-1.107h-.843l-1.816 1.449c-.119-.11-.302-.11-.421 0l-.301.271-1.354.161c-.73.081-1.414.39-1.957.886l-1.835 1.64c-.189.173-.261.44-.186.685.075.245.284.425.537.462l.562.07c-.01.09.02.177.08.242-.357.33-.693.683-1.003 1.057-.412.543-.442.815.35 1.338h.01s.492.473.462.785c-.093.32-.25.618-.461.876l-.642.332L0 43.9c.501.283 1.114.283 1.615 0 0 0 .351.181 1.003-.895.324-.573.693-1.118 1.104-1.63l2.056-1.007h.01c-2.556 1.748-3.733 4.926-2.933 7.924.8 2.998 3.4 5.163 6.485 5.397 3.085.235 5.981-1.512 7.222-4.355 1.706.241 5.849.815 6.802.825.286.025.57-.068.785-.258.216-.19.346-.46.358-.748v-.222l2.689.131c.17-.086.311-.223.4-.392.834-.06 4.485-1.006 5.107-1.006.622 0 4.926.08 6.019.16 1.598-.158 3.091-.87 4.223-2.012.466-.498.895-1.03 1.284-1.59H44.791l.431-.1.502-.151h.1l.16-.07c-.362.873-.549 1.81-.55 2.756-.018 3.623 2.614 6.712 6.184 7.258 3.57.546 7-1.615 8.06-5.079 1.06-3.463-.57-7.183-3.832-8.74 1.545.423 2.448.302 2.789-.281-1.184-2.113-3.177-3.647-5.518-4.247H50.318l-1.083.866-.08.08-.08.08c.446-.476.964-.88 1.534-1.197.06-.174.173-.325.321-.432.241 0 .663-.121.482-.584-.507-1.233-1.104-2.427-1.786-3.572l.17-1.007v-.2s-1.815-3.784-3.24-4.56l-1.003.172-.491-.544c-.783-.895-1.806-1.932-2.277-2.405-.11-.104-.27-.135-.412-.08-.088.087-.186.164-.29.231.138-.117.216-.29.21-.473.05-.291.813-.382 1.545-.543l.07.08H44.38l1.215-3.592-.994-.432-2.758-.765-.943-.715c-.023-.026-.056-.04-.09-.04-.035 0-.068.014-.09.04l-.272.423-.642-2.093c.38-.268.628-.685.683-1.147-.077-.52-.342-.992-.743-1.328v.05c-.267-.271-.555-.52-.863-.745-.064-.041-.145-.048-.215-.018-.07.03-.121.094-.136.17-.188 1.133-.232 2.286-.13 3.43.056.134.186.221.331.222.06.014.121.014.18 0 .198-.11.388-.231.572-.362l.683 2.244c-.15.22-.23.478-.231.744l-1.585 1.45h-.05c-.502-.15-1.01-.27-1.525-.363l-.462-.191c-.613-.095-1.235-.132-1.855-.11l-1.104-1.651-.29-1.51-.673-.342c-.276-.692-.637-1.348-1.073-1.952-.133-.174-.284-.332-.452-.473-.24-.353-.506-.689-.792-1.006l-.271.262.1.14-.09-.14c.202-.205.362-.448.471-.715.05-.105.05-.227 0-.332.612.201 1.646-.483 2.639-1.53h.21c.413-.395.783-.834 1.104-1.308.093-.142.177-.29.25-.442l.09-.151v-.09c-.03-.097-.067-.191-.11-.283l-.06-.15c.05-.141.11-.292.16-.453v-.08s2.097 1.77 2.61 1.116c.034-.047.064-.098.09-.15v-.101c.17-.816-.843-2.013-2.007-2.758.102-.635.04-1.287-.18-1.891C34.458 1.39 33.528.658 32.441.28 32.12.168 31.781.107 31.44.098c-.26-.16-.391-.11-.441.05-.416.01-.828.078-1.224.202-.117.021-.227.07-.321.14-.2.083-.38.21-.522.373-.248.371-.46.766-.632 1.178h-.481v-.08l-.833.06c0-.222.06-.836-.24-.916-1.364.062-2.714.306-4.013.724-.096.06-.18.134-.251.222-.755.035-1.512-.013-2.257-.141-.73-.276-1.52-.35-2.288-.212-.263.203-.514.422-.752.655 0 0-.642-.151-.903 0-.714.784-1.315 1.664-1.785 2.616zm34.087 31.908l.18-.251-.18.251zm.26-.362c.022-.026.045-.05.071-.07-.03.04-.054.083-.07.13v-.06zm-.822 1.791c.015-.034.032-.068.05-.1-.054.035-.104.075-.15.12l.1-.02zm-.07.342v-.1.1zm-.14.272l-.06.11.06-.11zM29.694 20.375c-.46.4-.946.77-1.455 1.107l-.321.372c.381-.664.903-1.791.903-1.791l.873-1.006h.05c.02.44.003.88-.05 1.318zM27.115 4.536h.14l.392.221.21.111c-.017.58.044 1.158.181 1.72l-.12.091s-.21-.412-.542-.462c-.16 0-.451.17-.722.523-.165-.387-.415-.731-.732-1.006L25.5 5.38c.803 0 1.565-.07 1.666-.241.12-.19.099-.436-.05-.604zm1.746 33.73c0 .13-.07.252-.11.372-.157-.332-.253-.69-.281-1.056l.39.684zm9.59-16.1c.105.24.189.49.25.744.161.624.242 1.007.733.876-.073.037-.135.092-.18.16-.157.107-.217.31-.14.484.15.372 2.387 5.897 2.688 6.792.704 2.081.6 4.352-.291 6.36-.833 1.801-1.094 2.787-1.726 3.461-.263.256-.568.464-.903.614-.62.228-1.262.39-1.916.483-.955-.007-1.906-.115-2.839-.322-.867-.13-1.723-.332-2.558-.604l-.21-.241c.31-.017.608-.137.842-.342l1.004-3.432s2.207-4.88 2.357-5.625c.15-.744-.401-1.278-.792-2.233-.281-.675-4.394-2.758-6.792-3.915V24.24l-.24-.292h-.08c-.061-.607-.014-1.22.14-1.811-.05.261-.08.946-.08.946.962-.68 1.868-1.437 2.708-2.265.122-.322.196-.661.22-1.006l2.368 1.942c.371.111.756.172 1.144.181.23 0 2.728.161 4.253.262l.04-.03zm-17.736 9.036h.13-.13z" opacity=".42"/>
                    <path fill="#D42129" fill-rule="nonzero" d="M21.334 22S12.08 19.007 12 18.48c-.08-.529 4.726-12.03 4.875-12.304.15-.274 5.094-.147 5.094-.147L26 17.824 21.334 22z"/>
                    <path fill="#161616" fill-rule="nonzero" d="M23.444 10.525L24 17.762 19.477 22l-2.827-1.034c-.242-.139-.462-.32-.65-.537 0-.176 3.93-12.24 3.93-12.24L22.341 7l1.102 3.525z" opacity=".4"/>
                    <path fill="#A51C2D" fill-rule="nonzero" d="M29.168 11c.767.252 1.456.711 1.997 1.33.434.625.793 1.302 1.068 2.018l.669.353.29 1.56 1.098 1.705c.617-.022 1.236.017 1.846.114l.49.136c.515.096 1.025.221 1.527.374.53.197 1.847.52 1.847.52L39.48 22s-5.14-.374-5.51-.333c-.389-.01-.775-.072-1.148-.187l-3.664-3.119-1.158-.53.19-1.154.978-5.677z"/>
                    <path fill="#D42129" fill-rule="nonzero" d="M20.07 18s-3.117 3.043-3.07 3.301c.349.684.74 1.346 1.17 1.981L27.514 26l.105-.115s.307-.46.365-.584c.023-.398.023-.797 0-1.196l-.22-.277-2.504-.335-3.712-1.723L20.07 18z"/>
                    <path fill="#D42129" d="M28 4.516c-1.865.06-3.711.41-5.478 1.04-1.883.904-3.31 2.078-5.063 2.266-1.753.187-2.883.415-3.338-.406-.456-.821.366-3.264 2.665-4.272 2.298-1.009 3.289-.458 4.953-.697.886-.133 1.78-.196 2.675-.187L27.168 2 28 4.516z"/>
                    <path fill="#D42129" fill-rule="nonzero" d="M30 9.36c-.249.399-.469.814-.658 1.242-.227.555.701 2.589.226 2.383C29.094 12.78 24 7.048 24 7.048l2.795.298L28.791 6 30 9.36z"/>
                    <path fill="#D42129" fill-rule="nonzero" d="M29.933 12.44c.184 2.262-.012 4.54-.578 6.73l-.847 1.025s-.607 1.395-.964 2.052c-.356.657 0 3.221-.163 3.631-.164.41-.963-.348-.963-.348l-7.667-3.755-.751-.359 2.254-3.077.385-3.078s.693-6.965 1.213-7.621c.329-.435.836-.673 1.358-.636.222 0 1.753.195 1.753.195l3.13 2.349 1.84 2.892z"/>
                    <path fill="#D42129" fill-rule="nonzero" d="M21.673 9.155s-1.533 3.247-1.449 3.799c.084.551.197 3.778.197 3.778L19 19.214l1.607.786 3.561-4.452L25 8.665 21.505 7l.168 2.155z"/>
                    <path fill="#D42129" fill-rule="nonzero" d="M17.859 8.41L20.404 9.64 21.203 13 23 9.502 21.133 7.477 17.29 7 17 7.827z"/>
                    <path fill="#D42129" fill-rule="nonzero" d="M23 2.387c-.958.041-1.917.002-2.867-.117-.75-.267-1.563-.338-2.352-.204-.268.195-.523.407-.763.633 0 0-.67-.146-.939 0-.702.757-1.299 1.596-1.774 2.496-.31.638-.386 1.355-.216 2.038.32.391.777.66 1.289.76.613.039 1.225-.09 1.764-.37l5.363-3.003L23 2.387z"/>
                    <path fill="#A52029" fill-rule="nonzero" d="M29.27 9.885s.88.507.708.953c-.104.268-.257.513-.45.72 0 0-1.128.719-1.549.323C27.56 11.486 26 9.105 26 7.96s.899-2.027 1.205-1.956c.306.07.516.466.516.466s.813 3.121 1.014 3.506l.21.385.325-.476z"/>
                    <path fill="#D42129" fill-rule="nonzero" d="M26.999 11s.12-4.828-2.13-5.434c-1.326-.363-2.69-.554-4.063-.566l-5.804 2v.697s-.12.394 1.752 1.01c1.872.616 4.042.434 4.45.616.409.182 1.992 1.101 1.992 1.101l3.803.576z"/>
                    <path fill="#161616" fill-rule="nonzero" d="M16.113 3.99c.219-.538.945-.19.945-.19s.576.11 1.173.29c.596.179-.497-.828-.497-.828.195-.024.38-.1.536-.219.348-.219 1.63.469 1.77.449l2.296-.27 1.62 1.984.497.926c.255.173.463.405.607.678.298.508.626 4.205 1.222 2.89.354-.828.417-1.752.18-2.62v-.11c.268-.35.556-.549.715-.519.328 0 .537.459.537.459l.676-.479.626 1.425.477 1.625s-.12.418-.268.857l.06-.08c.079.038.155.08.228.13l-.418.757.547.07c-.079.148-.172.288-.278.418l.636.937s-.288 5.71-.527 6.637l-.875.996s-.626 1.356-.994 1.993c-.188.582-.249 1.197-.179 1.804l-5.676-2.69s.995-3.708.995-3.827c0-.12-2.764-2.68.357-1.216 1.797.83 3.47 1.906 4.97 3.199l.677-.17s-5.16-4.026-5.22-4.295l-.566-2.112 1.292.09s-1.103-1.834-1.431-2.422c-.328-.588-2.614-.618-2.614-.618l-2.446-1.126c-.36-.062-.715-.148-1.063-.26-.374-.11-.739-.247-1.094-.408h-.119c-.103-.018-.203-.048-.298-.09-.096-.439-.156-.885-.18-1.335-.118-1.016.876-2.182 1.104-2.73z" opacity=".16"/>
                    <path fill="#D42129" fill-rule="nonzero" d="M33.982 7.113c.278-.415.495-.87.642-1.35.248-.801.663-2.506.08-3.53-1.167-2.03-2.62 0-3.49-2.233 0 0-3.045 1.42-3.203 4.059-.158 2.638 1.424 5.428 2.284 5.864.86.437 2.688-1.055 3.687-2.81z"/>
                    <path fill="#FFF" fill-rule="nonzero" d="M32.021 5.58v-.06l.727-.584-.748-.16c.552-.83.834-1.796.811-2.776.458.665.74 1.423.822 2.212l.232-.179c.287 1.338.114 2.728-.495 3.967-.126-.426-.306-.835-.538-1.22-.23-.422-.502-.824-.81-1.2z"/>
                    <path fill="#E8D6AD" fill-rule="nonzero" d="M29.161 6.097c1.273-.452 2.95.777 3.839 1.544-1.133 1.436-2.575 2.583-3.315 2.322-.99-.792-1.6-1.942-1.685-3.18.344-.29.737-.521 1.161-.686z"/>
                    <path fill="#BED2C8" fill-rule="nonzero" d="M35 7.138c-.394.72-.97 1.356-1.688 1.862h-.261s0-.931-.512-1.23c-.512-.297-2.232 0-2.842-.567-.426-.555-.667-1.199-.697-1.862L29.577 4l.512.521S34.608 5.49 35 7.138z"/>
                    <path fill="#C4B28F" fill-rule="nonzero" d="M32 8.153c.04.121.09.238.15.35-.04-.073-.074-.15-.1-.23l.24.09s-.06-.33-.18-.36c-.12-.03-.11.15-.11.15z"/>
                    <path fill="#231F20" fill-rule="nonzero" d="M31.447 8.46c.31.1.34.17.28.18h-.11c-.092.004-.185-.013-.27-.05-.04-.074-.074-.15-.1-.23l.2.1z" opacity=".6"/>
                    <path fill="#F0E7D2" fill-rule="nonzero" d="M32.457 8.51v-.09l.06.08c.06.08 0 .08 0 .08s-.06-.03-.06-.07z"/>
                    <path fill="#FFF" fill-rule="nonzero" d="M32.829 8L33 5.433c-.288-.177-.59-.322-.9-.433L32 7.662s.64.021.829.338z" opacity=".39"/>
                    <path fill="#FFF" fill-rule="nonzero" d="M31 4.377V7s-.787 0-1-.328L30.126 4c.305.066.6.194.874.377z" opacity=".15"/>
                    <path fill="#FFF" fill-rule="nonzero" d="M34.21 6c.236.637.26 1.345.07 2 .208-.298.379-.625.51-.972-.093-.4-.296-.76-.58-1.028z"/>
                    <g fill="#231F20" fill-rule="nonzero" opacity=".8" transform="translate(30 5)">
                        <circle cx="1.051" cy="1.265" r="1" transform="rotate(-62.61 1.051 1.265)"/>
                        <path d="M1.8 1.07c.008-.053.008-.107 0-.16-.02-.052-.043-.102-.07-.15C1.717.731 1.7.704 1.68.68L1.6.61h-.32l-.1.06H1.61c.023-.005.047-.005.07 0l.06.07.05.06v.07c0 .09.06.15.06.15l-.05.05z"/>
                    </g>
                    <g fill="#231F20" fill-rule="nonzero" opacity=".8">
                        <path d="M1.49 1.27c.007-.043.007-.087 0-.13.005-.047.005-.093 0-.14C1.482.94 1.45.885 1.4.85c-.03-.005-.06-.005-.09 0H1.1h.21c.039-.015.081-.015.12 0 .03.033.053.07.07.11.004.043.004.087 0 .13.006.043.006.087 0 .13l-.01.05z" transform="translate(32 6)"/>
                    </g>
                    <path fill="#231F20" fill-rule="nonzero" d="M33.505 7.46c-.015-.047-.039-.091-.07-.13h.12c.072.015.14.046.2.09-.046-.062-.108-.11-.18-.14H33.245h.09c.036.014.067.038.09.07.032.032.06.07.08.11v.12c-.004.047-.004.093 0 .14.005-.047.005-.093 0-.14.008-.04.008-.08 0-.12z" opacity=".81"/>
                    <path fill="#231F20" fill-rule="nonzero" d="M32 .104c-1.67 1.143-2.828 2.8-3.259 4.664-.36 2.758 0 3.232 0 3.232s-1.747-2.357.124-6.331c1.466-2.718 2.842-.206 2.842-.206S31.019-.462 32 .104z" opacity=".19"/>
                    <path fill="#D42129" fill-rule="nonzero" d="M27.68 6.085c.2.111.33.291.351.49.061.35.813 3.183.959 3.353.146.17-1.335 0-1.335-.1S27.437 6.895 27 6.495c0 0 .364-.74.68-.41z"/>
                    <path fill="#DB4954" fill-rule="nonzero" d="M27.515 7.013s.17 0 .2.11c.03.108.16.497.15.517-.01.02-.19-.102-.28 0-.09.103-.09.443-.15.341-.06-.102-.2-.613-.2-.681-.012-.04-.048-.075-.1-.096 0 0 .15-.266.38-.19z"/>
                    <path fill="#D42129" fill-rule="nonzero" d="M34.341 5.687s2.428 2.157 2.644.942c.216-1.214-1.965-3.298-3.587-3.507-.792-.163-1.606-.163-2.398 0 1.326.488 2.488 1.38 3.341 2.565z"/>
                    <path fill="#D42129" fill-rule="nonzero" d="M34.915 5c0-.1.271-2.014-.155-2.72-.598-.977-1.497-1.716-2.551-2.094-1.157-.39-2.424-.16-3.385.614-.459.657-.743 1.429-.824 2.236.136.322 1.494 0 1.494 0L34.914 5z"/>
                    <path fill="#A52029" fill-rule="nonzero" d="M36.998 7.691c-.356 1.103-2.79-1.102-2.79-1.102C33.39 5.44 32.276 4.564 31 4.064c.719-.085 1.444-.085 2.163 0 1.703.254 3.918 2.327 3.835 3.627z"/>
                    <path fill="#231F20" fill-rule="nonzero" d="M34.941 4c-1.005-.649-2.17-.851-3.287-.571-.574-.045-1.135-.22-1.654-.515 0 0 .373.195.573 0C30.774 2.72 31.53.63 32.18 0c1.018.233 1.93.903 2.562 1.886.252.661.323 1.402.2 2.114z" opacity=".1"/>
                    <path fill="#E7E7E7" fill-rule="nonzero" d="M34.785 4s0-.098-.62-1.049l.31-.195c-.114-.264-.244-.516-.39-.756.324.293.605.652.83 1.061l-.35.207.22.732z"/>
                    <path fill="#231F20" fill-rule="nonzero" d="M28.106 3c1.128.53 2.366.863 3.643.978 2.626 1.015 3.177 2.066 3.177 2.066v.146l-.148.347.222.485-.392.575s-.54.622-1.059.32c-.519-.301-1.821-1.828-2.372-2.239C30.627 5.267 28 4.115 28 4.115l.106-.786c-.018-.11-.018-.22 0-.329z" opacity=".21"/>
                    <path fill="#F5F7F7" fill-rule="nonzero" d="M26.345 2.535s.11-.11.18-.13c.042-.016.088-.016.13 0v.1l-.07.1s-.17.02-.24-.07z"/>
                    <path fill="#D42129" fill-rule="nonzero" d="M26.146 2.304h1.013l2.604-.152L30.4 2l.405.161 2.442.33.112.064.932.107s.091.214 0 .268h.689s.111.206-.203.322c-.091.037-.166.1-.213.179-.052.052-.11.1-.172.143-.068.047-.148.081-.233.098-.19.033-.384.057-.577.072l-.993.197-1.014.098s.304.116.223.268c-.08.153-1.226.233-1.317.331-.51.33-1.16.442-1.773.304-.555-.235-1.093-.5-1.611-.796H26.5c-.5-.506-.638-1.218-.354-1.842z"/>
                    <path fill="#231F20" fill-rule="nonzero" d="M25 4.287s.891 0 .922-.109c.03-.108.172-.601.243-.568.07.034 0 0 0 0l-.193-.192.406.276c.415.133.852.215 1.296.242.193-.058 1.58-.777 1.58-.777h.841l-.182-.142.263.15h.83l-.11-.142.212.125h.942c.108-.035.207-.086.294-.15h1.084s0 .059-.081.109c-.046.031-.097.056-.152.075h.79c.02.046.02.096 0 .142 0 .067-.294.15-.294.15-.044.07-.107.13-.182.176l-.213.117-2.725.284s.294.134.183.284c-.112.15-.932.134-1.074.176-.41.206-.848.369-1.307.484 0 0-.567.092-2.228-.835L25 4.287z" opacity=".25"/>
                    <path fill="#231F20" fill-rule="nonzero" d="M30.144 2.65L32 2.51 31.751 2.5 31.55 2.35 31.656 2.52 30.871 2.53 30.622 2.35 30.794 2.52 30 2.52zM32.52 2.375c-.004.092-.04.18-.1.25h.07l.09-.24-.06-.01z" opacity=".23"/>
                    <path fill="#231F20" fill-rule="nonzero" d="M26.217 3.02c-.095.102-.168.212-.217.327 0 .095.144.429.34.483.377.088.768.145 1.166.17.062-.04 1.609-.68 1.609-.68s2.825.034 2.867 0c.04-.034 0-.102 0-.143-.319-.048-.643-.075-.97-.082l-.062-.047v.156-.136h-1.237L29.403 3l-.32.15-2.815.462-.185-.285.134-.307z" opacity=".09"/>
                    <path fill="#A52029" fill-rule="nonzero" d="M26.418 4.18s-.486-.172-.608-.953c-.08-.466.118-.937.505-1.199l.384-.076s.13-.857-.215-.952c-1.272.057-2.53.288-3.741.685-.654.56-.906 1.47-.636 2.295.177.63.759 1.052 1.403 1.018.187-.057 3.217.095 3.413-.247.131-.203.09-.474-.093-.629l-.412.057z"/>
                    <path fill="#161616" fill-rule="nonzero" d="M25.701 4s.793.813 1.299.91L23.049 5c-.402-.122-.757-.315-1.035-.561-.231-.293 2.476.146 3.687-.439z" opacity=".16"/>
                    <path fill="#E2E2E2" fill-rule="nonzero" d="M23 5.063c.74 1.359 1.022 2.923.805 4.458l-.134.76C24.985 12.085 26.146 14 27.141 16h.34s1.93 0 2.457-.865l.062-.437c-.672.744-1.666 1.103-2.653.958-.816-2.007-1.938-3.873-3.325-5.531.423-1.732.188-3.56-.66-5.125L23 5.063z"/>
                    <path fill="#B7B7B7" fill-rule="nonzero" d="M28 12.113s-.759 5.747-.85 5.881c-.09.135-.406.62-.406.62s-.398 1.496-.57 1.877l-.334.784L25.352 25 25 24.825s.407-3.405.57-3.756l.334-.815s.524-1.775.56-1.878c.036-.103.47-.67.47-.67l.84-5.706.226.113z"/>
                    <path fill="#C4C4C4" fill-rule="nonzero" d="M28.44 12.27c.143.15.273.31.39.48 0 0 0 .13-.07.12-.164-.046-.324-.103-.48-.17-.029-.162-.065-.322-.11-.48v-.09s.27.11.27.14z"/>
                    <path fill="#161616" fill-rule="nonzero" d="M28.185 12.135l.15.42c.158.074.322.134.49.18 0 0 0 .14-.07.13-.165-.046-.325-.107-.48-.18-.022-.162-.055-.323-.1-.48l.01-.07z" opacity=".16"/>
                    <path fill="#353535" fill-rule="nonzero" d="M28.46 12.39c.059.07.112.143.16.22h-.14l-.1-.22h.08z"/>
                    <path fill="#161616" fill-rule="nonzero" d="M28.645 12.695L28.625 12.835 28.355 12.755 28.465 12.165 28.565 12.665z" opacity=".46"/>
                    <path fill="#161616" fill-rule="nonzero" d="M21.869 5c-.8.217-1.584.497-2.342.837-.231.33-.58.556-.971.631-.861.045-1.724.045-2.584 0H15l1.263.581.612.276 1.564.483c.742.61 1.637 1 2.585 1.123 1.146 0 2.914.069 2.914.069.083-.323.083-.662 0-.985-.136-.493-.69-2.591-.816-2.227-.126.365-.641 1.852-.66 1.478-.02-.374 0-.571 0-.571l-.496-1.252-2.089.68L21.87 5z" opacity=".16"/>
                    <path fill="#231F20" fill-rule="nonzero" d="M33.925 3.325s-.82.09-1.034.08c-.214-.01-1.052.13-1.052.13l-.839.15.932-.06 1.052-.15L34 3.315" opacity=".25"/>
                    <path fill="#231F20" fill-rule="nonzero" d="M29.233 3c.2.084.373.203.51.348l.764-.107 1.673-.054h.266c.184.021.37.021.554 0-.122.134-.798.072-.798.072l-1.562.09-.875.097c.21.268.542.795.265.429-.287-.313-.635-.587-1.03-.813L29.233 3zM31 4.33h-1.303L29 4.67l.731-.26c.274.013.55.013.823 0 .149.01.446-.08.446-.08z" opacity=".25"/>
                    <path fill="#DB4954" fill-rule="nonzero" d="M21.425 11.154c-.226.322-.4.687-.517 1.078 0 .318.142 3.707.125 3.745l-.125.356L20 17.99l.3.51-.1.193.35.308-.075-.298s.142 0 .092-.203c-.058-.194-.133-.382-.225-.558.41-.611.783-1.255 1.116-1.925v-4.352c0-.058.542-.664.542-.664s-.525 0-.575.154zM31 0c-.166.112-.298.316-.368.571-.145.49-.324.954-.536 1.384-.058 0-.284-.102-.301 0-.017.101-.26 0-.26 0H29s.268-1.27.594-1.549C30.042.136 30.52 0 31 0z"/>
                    <path fill="#383838" fill-rule="nonzero" d="M20.733 31.17c3.26.485 6.377 1.7 9.134 3.557.722.477 1.677.315 2.212-.377.644-.703.975-1.65.914-2.616-.537-1.736-1.845-3.105-3.522-3.683-1.135-.163-2.286-.163-3.42 0-2.395-.067-4.768-.475-7.054-1.214-1.3-.544-6.09-.763-8.261-.837-.69-.013-1.32.399-1.604 1.047L9 27.256l1.106 2.522s5.237.575 10.627 1.391z"/>
                    <circle cx="52.523" cy="46.342" r="7.25" fill="#2E2B36" fill-rule="nonzero" transform="rotate(-89.8 52.523 46.342)"/>
                    <circle cx="52.289" cy="46.394" r="4.008" fill="#A6A7AA" fill-rule="nonzero" transform="rotate(-76.661 52.29 46.394)"/>
                    <circle cx="52.5" cy="46.5" r="2.5" fill="#808083" fill-rule="nonzero"/>
                    <path fill="#C0B399" fill-rule="nonzero" d="M36.047 43.07L36 43.64 41 43.93 41 43.34z"/>
                    <path fill="#FFF" fill-rule="nonzero" d="M36.99 43c.124-1.044-.88-1-.88-1l-.11.939.99.052V43z"/>
                    <path fill="#382C27" fill-rule="nonzero" d="M24.949 46.104c-1.417-.341-2.677-3.007-2.677-3.007S16.314 41.493 11 40l.117 6.444L18.775 49c1.287-.022 2.553-.33 3.712-.902.631-.451 1.446-.531 2.15-.21.767.22 1.569.295 2.363.22-.694.02-2.051-2.004-2.051-2.004z"/>
                    <circle cx="9.5" cy="46.5" r="7.5" fill="#2E2B36" fill-rule="nonzero"/>
                    <circle cx="9.823" cy="46.189" r="4.02" fill="#A6A7AA" fill-rule="nonzero" transform="rotate(-80.62 9.823 46.19)"/>
                    <circle cx="9.5" cy="46.5" r="2.5" fill="#808083" fill-rule="nonzero"/>
                    <path fill="#D22229" fill-rule="nonzero" d="M42.2 16.769l-.928-.727c-.024-.027-.059-.042-.095-.042-.036 0-.07.015-.094.042l-.52.809c-.144.228-.22.495-.219.767 0 0-2.044 1.904-2.304 2.17-.259.266.808 2.476.998 3.305.19.83.28 1.167 1.297.686s1.865-1.023 1.994-1.075c.147-.094.243-.253.26-.43.07-.399 1.366-.43 2.204-.726L46 17.895l-3.8-1.126z"/>
                    <path fill="#D22229" fill-rule="nonzero" d="M50.957 33.933c-1.522-3.492-3.64-6.698-6.263-9.48-.776-.875-1.792-1.89-2.25-2.352-.145-.135-.372-.135-.517 0-.109.105-.23.198-.359.276-.189.108-2.05.984-2.578 1.23-.097.043-.172.122-.21.22-.037.098-.033.207.01.302.14.354 2.36 5.768 2.669 6.645.704 2.026.611 4.24-.26 6.201-1.264 2.727-1.214 3.524-3.165 4.302-1.398.379-2.873.379-4.271 0-1.464-.266-3.336-.581-4.39-1.713-.708-.655-1.144-1.546-1.225-2.5.048-1.114.456-2.184 1.164-3.052-2.708-1.732-5.766-2.861-8.96-3.307-5.297-.748-10.464-1.26-10.464-1.26s-6.73 5.748-7.606 6.89c-.408.542-.438.798.348 1.31.787.511 19.723 5.433 19.723 5.433s1.284 2.658 2.728 2.953c0 0 1.384 1.969 2.1 1.969.718 0 4.481-.984 5.118-.984.637 0 4.889.078 5.974.157 1.583-.155 3.061-.852 4.181-1.969 2.054-2.407 3.806-5.051 5.217-7.875.486-1.115 1.343-2.032 2.43-2.598.11-.061.232-.098.358-.109.259-.137.677-.236.498-.689z"/>
                    <path fill="#CFD1D2" fill-rule="nonzero" d="M44.924 17L44 21c.262-.044.52-.106.772-.187L46 17.296 44.924 17z"/>
                    <path fill="#188D8D" fill-rule="nonzero" d="M40.482 17.111l-.28.289-.202.944c.258.289.545.51.849.656L41 17.667 40.72 17l-.238.111z"/>
                    <path fill="#D22229" fill-rule="nonzero" d="M49.99 35.017l-1.058.865c-.46.453-.818 1.006-1.049 1.62C46.8 39.796 45.5 41.972 44 44c1.214-.054 2.362-.591 3.204-1.499 1.948-2.477 5.115-3.543 8.097-2.726 1.495.423 2.379.302 2.699-.282-1.63-2.95-4.735-4.684-8.01-4.476z"/>
                    <path fill="#BC202E" fill-rule="nonzero" d="M8 31l-1.9.21c-.745.082-1.446.39-2.002.88l-1.88 1.66c-.173.154-.251.386-.205.61.054.276.28.488.565.53l.873.11L8 31z"/>
                    <path fill="#424143" fill-rule="nonzero" d="M2.626 38s.464.474.445.786c-.09.322-.242.62-.445.878l-.607.332L0 43.787c.474.284 1.052.284 1.526 0 0 0 .341.182.948-.897.3-.575.646-1.12 1.033-1.633l1.953-.958L8 39.724C5.128 38.877 2.844 38.181 2.626 38z"/>
                    <path fill="#464849" fill-rule="nonzero" d="M36.605 45.873c1.407.318 2.88.032 4.074-.792 1.782-1.669 3.305-3.606 4.515-5.745.896-1.717 1.507-3.573 1.806-5.495-.804-1.885-1.705-3.726-2.7-5.514-.618-1.223-1.962-2.808-2.433-3.68-.317-.672-.276-1.461.107-2.096.079-.175.079-.376 0-.551-.04.01-.077.03-.107.06-.107.107-.226.201-.354.28-.186.111-2.022 1.004-2.542 1.264-.196.088-.288.32-.206.522.147.37 2.336 5.875 2.64 6.768.69 2.067.598 4.323-.255 6.326-1.247 2.768-1.198 3.58-3.121 4.382-1.38.38-2.832.38-4.211 0-.971-.148-1.925-.397-2.847-.742-2.055.59-4.188.847-6.32.762-.663.857-1.603 1.444-2.651 1.654l.609.17 6.007 1.264 7.99 1.163z"/>
                    <path fill="#25AEB5" fill-rule="nonzero" d="M47.9 41.866c1.3-1.651 2.25-4.601 2.56-5.115.754-.635 1.614-1.129 2.54-1.46-.908-.228-1.845-.323-2.78-.281l-1.09.865c-.492.45-.878 1.003-1.13 1.621-1.116 2.296-2.456 4.475-4 6.504.877-.058 1.726-.335 2.47-.805.28-.252.54-.494.78-.695.24-.201.42-.413.65-.634zM38.08 23.041c.205.886.287 1.231 1.336.724 1.048-.508 1.922-1.08 2.056-1.134.155-.108.251-.29.256-.486.072-.42 1.409-.453 2.272-.766l-1.85-.443c-.468-.633-1.051-1.161-1.717-1.554-.904-.432-2.641-.659-3.391.216-.268.237.832 2.547 1.038 3.443z" opacity=".5" style="mix-blend-mode:multiply"/>
                    <path fill="#B2B2B2" fill-rule="nonzero" d="M3.28 36c-.117-.004-.22-.085-.261-.204-.042-.12-.014-.254.07-.342l4.418-4.366c.115-.117.293-.117.408 0 .113.124.113.324 0 .448L3.5 35.902c-.059.063-.138.098-.22.098z"/>
                    <path fill="#CFD1D2" fill-rule="nonzero" d="M42.665 23.064c.16-.307.248-.645.259-.99-.13-.099-.31-.099-.439 0-.014.247-.075.489-.18.713-.348.525-.548 1.366.998 3.267 1.671 2.468 3.107 5.086 4.288 7.82-.574 2.438-1.584 4.755-2.982 6.84-1.216 1.564-2.293 2.87-2.812 3.415-.818.82-1.911 1.313-3.071 1.386-.959.03-1.917-.06-2.852-.267l-1.058-.188-.598-.08-.997-.148-3.85-.574h-.11c-.06-.009-.122.008-.17.045-.05.037-.081.092-.088.153-.019.125.064.242.189.267h.11l3.85.574.996.149.589.089.997.168c.803.174 1.621.273 2.443.297h.529c1.273-.082 2.473-.624 3.37-1.524.529-.555 1.616-1.881 2.843-3.455.958-1.43 1.741-2.97 2.333-4.583.346-.82.597-1.678.748-2.554-1.181-2.84-2.655-5.55-4.398-8.088-1.496-1.91-1.097-2.494-.937-2.732z"/>
                    <path fill="#FFF" fill-rule="nonzero" d="M59.938 46c.087 1.393-.222 2.782-.89 4 .525-1.27.827-2.624.89-4zM58.864 46c.071 1.044-.186 2.085-.74 3 .44-.952.69-1.968.74-3z" opacity=".6"/>
                    <path fill="#FFF" fill-rule="nonzero" d="M59 47c-.037.693-.21 1.373-.508 2 0 0 .133-.633.05-.65-.084-.017-.184.4-.284.308-.1-.091-.05-.891-.258-.708.084-.296.134-.6.15-.908.002.164.027.326.075.483.067.142.358-.425.45-.175.092.25.325-.35.325-.35z" opacity=".6"/>
                    <path fill="#808083" fill-rule="nonzero" d="M56 46c-.038.693-.212 1.373-.513 2 0 0 .143-.633.06-.65-.085-.017-.186.4-.295.308-.11-.091-.042-.883-.252-.708.084-.296.132-.6.143-.908.006.164.034.326.084.483.067.142.353-.425.454-.175.1.25.319-.35.319-.35z"/>
                    <path fill="#FFF" fill-rule="nonzero" d="M47 51c-1.05-1.12-1.745-2.509-2-4 .417 1.437 1.094 2.791 2 4zM47 50c-.52-.84-.867-1.881-1-3 .214 1.077.552 2.091 1 3z" opacity=".6"/>
                    <path fill="#FFF" fill-rule="nonzero" d="M47.15 50c-.549-.602-.939-1.282-1.15-2 0 0 .39.613.494.569.104-.045-.15-.453 0-.445.15.01.805.712.885.418.164.314.372.612.621.89-.145-.138-.315-.258-.506-.356-.195-.072 0 .595-.333.444-.333-.151-.012.48-.012.48z" opacity=".6"/>
                    <path fill="#808083" fill-rule="nonzero" d="M49 47c.011-.688.16-1.368.437-2 0 0-.118.628 0 .636.118.009.176-.396.277-.314.101.083.076.876.286.703-.074.295-.114.597-.118.9-.006-.163-.037-.324-.092-.479-.076-.14-.345.438-.454.19C49.226 46.388 49 47 49 47z"/>
                    <path fill="#FFF" fill-rule="nonzero" d="M58 38.868c-1.397-2.086-3.568-3.485-6-3.868 0 0 3.465.909 4.939 3.317 0 0 .526.657-1.606.387.853.328 1.782.385 2.667.164zM11.118 34.909c1.287-.389 2.61-.658 3.95-.805 1.348-.156 2.713-.137 4.057.057.678.1 1.34.278 1.974.53.665.26 1.265.654 1.758 1.154.164.182.309.379.434.587l.119.133c.787 1.36.787 3.012 0 4.371-.395.407-1.452-1.268-1.452-1.268l-7.157-1.892c.987.265 5.222 1.325 6.91 1.145.693-.014 1.258-.539 1.294-1.202-.093-.529-.336-1.023-.701-1.429-.4-.457-.903-.823-1.471-1.07-.586-.26-1.203-.454-1.836-.576-1.299-.255-2.627-.338-3.95-.246-1.333.089-2.655.298-3.948.624h-.07c-.032-.023-.039-.068-.014-.1.024-.03.07-.037.103-.013z" opacity=".6"/>
                    <path fill="#FFF" fill-rule="nonzero" d="M14.62 37.535l-.24-.07.24.07z"/>
                    <path fill="#2E2B36" fill-rule="nonzero" d="M32 47.841L26 47 29.91 47.991 31.417 48z" opacity=".52"/>
                    <path fill="#25AEB5" fill-rule="nonzero" d="M11.419 32.54c.442-.187.885-.341 1.327-.486.902-.29 1.819-.524 2.747-.701.634-.114 1.278-.207 1.932-.258.684-.227 1.468-.475 2.062-.65-3.089-.393-7.877-.93-9.487-1.105l.382-.34s4.85.495 9.98 1.228c.197.013.392.044.584.093 3.227.468 6.317 1.65 9.054 3.467-.107.158-.208.313-.302.464-1.463-1.164-3.124-2.04-4.9-2.58-.331.104-.593.392-.23 1.146.18.381.362.835.533 1.31l.07.093.241.382.172.34c.06.114.113.231.16.351.299.764.446 1.581.433 2.404v.537c-.048.495-.15.983-.302 1.455-.143.462-.346.903-.603 1.31.268-.898.38-1.838.332-2.776-.052-.895-.292-1.768-.705-2.558-.425-.769-.989-1.448-1.66-2.002l-.12-.103-.131-.093-.12-.093-.132-.083-.342-.165-.281-.144c-.09-.05-.185-.092-.282-.124l-.302-.124c-.201-.062-.402-.134-.614-.186-.834-.202-1.687-.316-2.545-.34-.906-.02-1.813.01-2.716.093-.906.082-1.821.206-2.736.34-.916.134-1.821.31-2.747.485l.644-.299.604-.289z" opacity=".5" style="mix-blend-mode:multiply"/>
                    <path fill="#FFF" fill-rule="nonzero" d="M5 51c-1.05-1.117-1.745-2.507-2-4 .42 1.437 1.096 2.791 2 4z" opacity=".6"/>
                    <path fill="#FFF" fill-rule="nonzero" d="M4 50c-.52-.84-.867-1.881-1-3 .21 1.079.55 2.094 1 3zM5.15 50c-.55-.602-.94-1.282-1.15-2 0 0 .39.613.494.569.104-.045-.138-.453 0-.445.138.01.816.712.897.427.154.315.359.613.609.889-.143-.135-.31-.255-.494-.356-.196-.07 0 .596-.334.445-.333-.151-.023.471-.023.471z" opacity=".6"/>
                    <path fill="#25AEB5" fill-rule="nonzero" d="M43.909 23.314s-1.277.271-.725 1.154c.552.883 4.943 7.254 4.813 9.532 0 0-3.418-7.023-5.408-9.03 0 0-1.082-1.164-.314-2.157l.27-.813 1.364 1.314z" opacity=".5" style="mix-blend-mode:multiply"/>
                    <path fill="#CFD1D2" fill-rule="nonzero" d="M49.81 31l.19-1.24s-1.712-3.95-3.054-4.76l-.946.179s3.678 5.558 3.81 5.821z"/>
                    <path fill="#282828" fill-rule="nonzero" d="M49.902 31C49.766 30.735 46 25.117 46 25.117l.488-.117c.06.099.132.188.214.265.78.733 2.518 3.993 2.927 4.46.09.127.225.205.371.213L49.902 31z" opacity=".27" style="mix-blend-mode:multiply"/>
                    <path fill="#303030" fill-rule="nonzero" d="M7 32.004c-.461-.02-.923.031-1.366.15-.123.066-.242.138-.357.216-.112.065-1.345 1.02-1.274 1.236.071.216.601.394.601.394L7 32.004z" opacity=".25" style="mix-blend-mode:multiply"/>
                    <path fill="#FFF" fill-rule="nonzero" d="M15 42c.939.841 1.626 1.872 2 3-.49-1.082-1.165-2.093-2-3z" opacity=".6"/>
                    <path fill="#FFF" fill-rule="nonzero" d="M15 42c.938.843 1.624 1.873 2 3-.49-1.082-1.164-2.093-2-3zM14.695 43c.563.603 1.004 1.278 1.305 2 0 0-.431-.61-.515-.57-.084.04.192.45 0 .43-.192-.02-.802-.72-.826-.44-.187-.3-.408-.585-.659-.85.142.136.303.257.479.36.18.08-.072-.57.228-.42.299.15-.012-.51-.012-.51z" opacity=".6"/>
                    <path fill="#CFD1D2" fill-rule="nonzero" d="M29 44.531s-.662 4.04-1.624 4.431l-2.686-.127c.023.308-.09.612-.31.834-.22.222-.527.342-.843.33-1.213 0-7.537-.91-7.537-.91s.431-7.365 1.694-8c1.263-.636 11.405 2.327 11.305 3.442z"/>
                    <path fill="#808083" fill-rule="nonzero" d="M13 46c-.037.694-.21 1.373-.508 2 0 0 .141-.633.05-.642-.092-.008-.184.392-.284.3-.1-.091-.041-.883-.258-.708.088-.295.139-.6.15-.908.002.164.027.326.075.483.075.15.358-.425.458-.175.1.25.317-.35.317-.35zM6 46c.015-.689.165-1.368.442-2 0 0-.117.636 0 .645.116.008.166-.405.275-.314.108.09.075.876.283.694-.071.295-.107.597-.108.9-.01-.16-.044-.32-.1-.47-.067-.141-.334.43-.442.19C6.242 45.405 6 46 6 46z"/>
                    <path fill="#2E2B36" fill-rule="nonzero" d="M24 48.811L16 48 24 49z" opacity=".52"/>
                    <path fill="#BABCBE" fill-rule="nonzero" d="M40.861 18c-.056-.003-.105-.061-.118-.143l-.74-3.62c-.013-.1.025-.196.09-.227.063-.031.133.014.161.105l.74 3.631c.02.1-.015.207-.081.243l-.052.011z"/>
                    <path fill="#CFD1D2" fill-rule="nonzero" d="M38.51 11.038c-.062-.043-.14-.05-.207-.019-.067.032-.116.098-.13.176-.182 1.179-.22 2.379-.115 3.569.033.1.104.178.195.214.091.037.192.027.276-.026.52-.314 1.471-.994 1.471-1.81 0-.817-.98-1.706-1.49-2.104z"/>
                    <path fill="#CFD1D2" fill-rule="nonzero" d="M39.292 12c.19.24.304.536.325.846 0 .757-.957 1.406-1.473 1.69-.047.014-.097.014-.144 0 .015.084.034.166.057.247.036.09.107.162.196.196.09.034.19.027.273-.02.517-.294 1.474-.934 1.474-1.7-.082-.493-.333-.94-.708-1.259z" style="mix-blend-mode:multiply"/>
                    <path fill="#352826" fill-rule="nonzero" d="M39 20.012c-.003.265-.112.518-.301.704-.19.185-.446.287-.711.284-.264 0-.517-.106-.703-.294-.186-.188-.288-.442-.285-.706 0-.552.448-1 1-1s1 .448 1 1v.012z"/>
                    <path fill="#2E2B36" fill-rule="nonzero" d="M42 36s-1.013 5.437-1.539 6.195c-.527.757-2.025 4.046-9.568 2.301l-4.88-1.793-1.013-.69 6.186-.72s3.96 1.122 5.427.854c1.469-.269 2.633-.422 3.382-1.717C40.745 39.136 42 36 42 36z" opacity=".52"/>
                    <path fill="#CE3730" fill-rule="nonzero" d="M31.602 40.946s1.02 1.28 1.175 1.446c.154.166 1.675.426 1.926.936.25.51.394 1.217.221 1.415l-.183.187c-1.161.183-2.346.006-3.419-.51-1.329-.842-.963-.665-.963-.665s-.144-.385-.366-.375c-.118-.006-.225.076-.26.198-.431-.016-.853-.14-1.232-.364-.276-.272-.453-.641-.501-1.04 0 0 .154-1.738.867-2.082.712-.343 2.62.344 2.735.854z"/>
                    <path fill="#4C4C4C" fill-rule="nonzero" d="M25.172 24.595l.57.307s8.048 3.713 8.437 4.654c.39.94.939 1.476.799 2.199-.14.723-2.357 5.516-2.357 5.516l-.998 3.377c-.333.276-.769.398-1.198.336-.81-.069-2.557-.079-2.706-.356-.15-.277.12-.94.12-.94.334-1.003.618-2.02.848-3.051 0-.436 1.069-4.328 1.618-4.674 0 0-4.504-1.258-5.522-1.397-1.019-.138-7.19-2.693-7.489-3.763-.3-1.07-.5-4.625.06-4.803l7.818 2.595z"/>
                    <path stroke="#CECECE" stroke-width="1.19" d="M21 23v2.158s.36.335 1 .842"/>
                    <path stroke="#CECECE" stroke-dasharray="2.81" stroke-width="1.19" d="M25 27c2.24 1.106 4.651 1.876 7.145 2.282 0 0 .865.803.855 1.458 0 .417-1.055 3.78-1.91 6.26"/>
                    <path stroke="#CECECE" stroke-width="1.19" d="M29.71 39L29.29 40"/>
                    <path fill="#2E2B36" fill-rule="nonzero" d="M31.513 41.136l.487.706c-1.367.371-2.797.082-4-.807L28.63 40s-.67.87.284.997c.954.126 2.599.139 2.599.139z" opacity=".52"/>
                    <path fill="#CFD1D2" fill-rule="nonzero" d="M35 43.726c-1.735.091-3.472-.16-5-.726l.14.156c1.277.712 2.961.994 4.58.767 0 0 .27-.088.28-.197z"/>
                    <path fill="#2E2B36" fill-rule="nonzero" d="M28 44.792L17 43 28 45zM28 45.8L17 44 28 46zM27 46.791L16 45 27 47zM27 47.8L16 46 27 48zM29 45l-12-2.515s.29-1.644 1.283-1.472c7.5 1.29 10.551 3.417 10.551 3.417L29 45z" opacity=".52"/>
                    <path fill="#4F422A" fill-rule="nonzero" d="M31.891 9.18s-1.506-1.24-1.684-1.178c-.178.063-.535 1.597.495 1.998.456-.22.89-.473 1.298-.758l-.109-.062z"/>
                    <path fill="#EA545F" fill-rule="nonzero" d="M30.236 8s1.14.335.45 2c-.292-.26-.487-.624-.55-1.027-.083-.326-.047-.674.1-.973z"/>
                    <path fill="#333" fill-rule="nonzero" d="M30.115 11S31 12.182 31 12.597v.405s-.31 7.052-.646 7.644c-.727.86-1.514 1.648-2.354 2.354.005-.348.035-.695.088-1.037.12-.193.25-.377.39-.55.451-.357.88-.752 1.283-1.182.048-.51.069-1.023.062-1.535 0 0 .973-5.414.407-6.7l-.39-.674.275-.322zM25.421 5.108c.42.603.692 1.306.794 2.047l-.068.717L17 18.652l1.171.348S26.805 8.947 27 8.486c.024-1.185-.393-2.332-1.162-3.194-.677-.522-.416-.184-.416-.184z"/>
                    <path fill="#C49A6C" fill-rule="nonzero" d="M19 8.901L17.705 12.757 15 13 16.924 8 18.01 8.162z"/>
                    <path fill="#D42129" fill-rule="nonzero" d="M26 23.773c-.417-.07-.844-.07-1.26 0-.566.282-1.24.302-1.824.054-.746-.354-2.501-1.645-2.84-1.818-.682-.192-1.375-.347-2.076-.464l.087-.372L19.425 21l4.054 1.582L26 23.772z"/>
                </g>
            </g>
        </g>
    </g>
</svg>
