<svg width="16" height="16" viewBox="0 0 16 16" fill="none" xmlns="http://www.w3.org/2000/svg">
<path d="M14.6639 0.492188H1.31921C0.862274 0.492462 0.491852 0.863068 0.491943 1.32019V14.6649C0.492218 15.1219 0.862823 15.4923 1.31995 15.4922H8.50464V9.69141H6.5564V7.4209H8.50464V5.74997C8.50464 3.81226 9.68759 2.75757 11.4161 2.75757C12.244 2.75757 12.9555 2.81927 13.1628 2.84683V4.87207H11.9709C11.0305 4.87207 10.8484 5.31894 10.8484 5.97482V7.4209H13.0969L12.804 9.69141H10.8484V15.4922H14.6639C15.1212 15.4923 15.4919 15.1218 15.4919 14.6646C15.4919 14.6645 15.4919 14.6644 15.4919 14.6642V1.31946C15.4918 0.862518 15.1211 0.492096 14.6639 0.492188Z" fill="white"/>
</svg>
