<svg xmlns="http://www.w3.org/2000/svg" xmlns:xlink="http://www.w3.org/1999/xlink" width="20" height="20" viewBox="0 0 20 20">
    <defs>
        <path id="mfqo3h6xba" d="M0 8.617C0-.83 15.272-3.39 19.323 5.492c1.28 2.811.746 5.884-1.466 8.43-2.016 2.434-6.497 5.404-7.594 5.885-1.159.509-1.857-.064-1.693-1.16.065-.618.216-1.26.157-1.394-.002 0-.074-.073-.396-.144C3.524 16.44 0 12.865 0 8.617zM18.184 6.01C14.69-1.66 1.25.518 1.25 8.617c0 3.618 3.07 6.672 7.302 7.262 1.462.32 1.5 1.14 1.38 2.039l-.033.236-.036.238-.033.238c1.113-.53 5.238-3.302 7.073-5.517 1.888-2.171 2.35-4.756 1.281-7.103zm-9.217.323c0-.631.835-.865 1.161-.322l1.285 2.14v-1.82c0-.827 1.25-.826 1.25 0v4.077c0 .281-.188.528-.459.603-.055.015-.111.022-.166.022-.216 0-.421-.111-.537-.303l-1.284-2.14v1.82c0 .344-.28.624-.625.624s-.625-.28-.625-.625zm-4.265-.626c.345 0 .625.28.625.625v3.45h1.005c.826 0 .826 1.25 0 1.251h-1.63c-.345 0-.625-.28-.625-.625V6.332c0-.345.28-.625.625-.625zm2.635.625c0-.828 1.25-.827 1.25 0v4.076c0 .345-.28.625-.625.625-1.084 0-.438-1.561-.625-4.701zm7.961-.625c.828 0 .827 1.25 0 1.25h-1.005v.788h1.005c.828 0 .827 1.25 0 1.25h-1.005v.788h1.005c.828 0 .827 1.25 0 1.25h-1.63c-.345 0-.625-.28-.625-.625V6.332c0-.345.28-.625.625-.625z"/>
    </defs>
    <g fill="none" fill-rule="evenodd">
        <g>
            <g>
                <g>
                    <g>
                        <g>
                            <g>
                                <g>
                                    <g transform="translate(-808 -2359) translate(0 1881) translate(0 216) translate(144 60) translate(661) translate(3 48) translate(0 152) translate(0 2)">
                                        <mask id="wckwhsigmb" fill="#fff">
                                            <use xlink:href="#mfqo3h6xba"/>
                                        </mask>
                                        <use fill="#231F20" xlink:href="#mfqo3h6xba"/>
                                        <g fill="#FFF" mask="url(#wckwhsigmb)">
                                            <path d="M0 0H20V20H0z"/>
                                        </g>
                                    </g>
                                </g>
                            </g>
                        </g>
                    </g>
                </g>
            </g>
        </g>
    </g>
</svg>
