<svg width="16" height="16" viewBox="0 0 16 16" fill="none" xmlns="http://www.w3.org/2000/svg">
<path d="M2.31125 0.8125C1.21133 0.8125 0.492188 1.53476 0.492188 2.48407C0.492188 3.41241 1.18991 4.15527 2.26904 4.15527H2.28992C3.41135 4.15527 4.10925 3.41241 4.10925 2.48407C4.08829 1.53476 3.41135 0.8125 2.31125 0.8125Z" fill="white"/>
<path d="M0.682129 5.47607H3.89764V15.1501H0.682129V5.47607Z" fill="white"/>
<path d="M11.7902 5.24902C10.0555 5.24902 8.89236 6.87903 8.89236 6.87903V5.47607H5.67676V15.1501H8.89218V9.74774C8.89218 9.45853 8.91315 9.16977 8.99811 8.96295C9.23056 8.38544 9.75955 7.78714 10.6479 7.78714C11.8114 7.78714 12.2768 8.67429 12.2768 9.97479V15.1501H15.492V9.60318C15.492 6.63174 13.9056 5.24902 11.7902 5.24902Z" fill="white"/>
</svg>
