<svg xmlns="http://www.w3.org/2000/svg" xmlns:xlink="http://www.w3.org/1999/xlink" width="20" height="20" viewBox="0 0 20 20">
    <defs>
        <path id="u7b3ynodoa" d="M7.031 0c3.877 0 7.032 3.154 7.032 7.031 0 1.271-.343 2.517-.992 3.603l-5.44 9.081c-.104.175-.293.283-.497.285-.208 0-.396-.105-.503-.277L1.05 10.729C.363 9.619 0 8.34 0 7.03 0 3.154 3.154 0 7.031 0zm0 1.164c-3.23 0-5.867 2.636-5.867 5.867 0 1.092.31 2.157.882 3.08L7.12 18.29l4.945-8.257c.54-.904.83-1.941.83-3 0-3.232-2.633-5.868-5.864-5.868zm0 2.352c1.939 0 3.516 1.577 3.516 3.515 0 1.905-1.527 3.516-3.516 3.516-1.964 0-3.515-1.59-3.515-3.516 0-1.938 1.577-3.515 3.515-3.515zm0 1.164C5.74 4.68 4.68 5.739 4.68 7.03c0 1.296 1.052 2.352 2.351 2.352 1.32 0 2.348-1.075 2.348-2.352 0-1.292-1.055-2.351-2.348-2.351z"/>
    </defs>
    <g fill="none" fill-rule="evenodd">
        <g>
            <g>
                <g>
                    <g>
                        <g>
                            <g>
                                <g>
                                    <g transform="translate(-811 -2205) translate(0 1881) translate(0 216) translate(144 60) translate(661) translate(3 48) translate(3) translate(.333)">
                                        <mask id="85rgckn2gb" fill="#fff">
                                            <use xlink:href="#u7b3ynodoa"/>
                                        </mask>
                                        <use fill="#000" xlink:href="#u7b3ynodoa"/>
                                        <g fill="#FFF" mask="url(#85rgckn2gb)">
                                            <path d="M0 0H20V20H0z" transform="translate(-3.333)"/>
                                        </g>
                                    </g>
                                </g>
                            </g>
                        </g>
                    </g>
                </g>
            </g>
        </g>
    </g>
</svg>
