<svg xmlns="http://www.w3.org/2000/svg" xmlns:xlink="http://www.w3.org/1999/xlink" width="20" height="20" viewBox="0 0 20 20">
    <defs>
        <path id="8zkgvcrx4a" d="M18.125 13.75H1.875c-.345 0-.625-.28-.625-.625V2.619l8.34 7.228c.118.102.264.153.41.153.146 0 .292-.05.41-.153l8.34-7.228v10.506c0 .345-.28.625-.625.625zm0-12.5c.085 0 .166.018.24.048L10 8.548l-8.365-7.25c.074-.03.155-.048.24-.048h16.25zm0-1.25H1.875C.841 0 0 .841 0 1.875v11.25C0 14.159.841 15 1.875 15h16.25C19.159 15 20 14.159 20 13.125V1.875C20 .841 19.159 0 18.125 0z"/>
    </defs>
    <g fill="none" fill-rule="evenodd">
        <g>
            <g>
                <g>
                    <g>
                        <g>
                            <g>
                                <g>
                                    <g>
                                        <g transform="translate(-808 -2399) translate(0 1881) translate(0 216) translate(144 60) translate(661) translate(3 48) translate(0 192) translate(0 2) translate(0 2.5)">
                                            <mask id="3olkk4cv5b" fill="#fff">
                                                <use xlink:href="#8zkgvcrx4a"/>
                                            </mask>
                                            <use fill="#231F20" xlink:href="#8zkgvcrx4a"/>
                                            <g fill="#FFF" mask="url(#3olkk4cv5b)">
                                                <path d="M0 0H20V20H0z" transform="translate(0 -2.5)"/>
                                            </g>
                                        </g>
                                    </g>
                                </g>
                            </g>
                        </g>
                    </g>
                </g>
            </g>
        </g>
    </g>
</svg>
