<svg xmlns="http://www.w3.org/2000/svg" xmlns:xlink="http://www.w3.org/1999/xlink" width="20" height="20" viewBox="0 0 20 20">
    <defs>
        <path id="3pr1tfipca" d="M5.641 0c.295 0 .55.206.611.494l.981 4.578c.045.207-.019.423-.169.573L5.388 7.32c1.581 3.144 4.147 5.71 7.29 7.291l1.677-1.676c.15-.15.366-.214.573-.17l4.578.982c.288.061.494.316.494.61 0 .948-.224 1.845-.666 2.667-.415.77-1.016 1.446-1.738 1.952-.72.504-1.555.837-2.415.964-.27.04-.539.059-.807.059-.646 0-1.286-.114-1.912-.342-2.757-1.001-5.317-2.633-7.402-4.718S1.343 10.295.342 7.538C.02 6.652-.075 5.737.059 4.818c.126-.86.46-1.694.964-2.414.506-.722 1.181-1.323 1.952-1.738C3.797.224 4.694 0 5.64 0zm-.499 1.277c-1.25.138-2.359.793-3.096 1.845-.828 1.182-1.021 2.636-.53 3.989 1.926 5.301 6.072 9.447 11.373 11.373 1.353.491 2.807.298 3.99-.53 1.05-.737 1.706-1.846 1.844-3.096l-3.724-.798-1.75 1.75c-.187.187-.47.236-.709.124-3.718-1.746-6.728-4.756-8.474-8.474-.112-.239-.063-.522.123-.708l1.751-1.75-.798-3.725zM10 0c2.671 0 5.182 1.04 7.071 2.929C18.96 4.818 20 7.329 20 9.999c0 .346-.28.626-.625.626s-.625-.28-.625-.625c0-4.825-3.925-8.75-8.75-8.75-.345 0-.625-.28-.625-.625S9.655 0 10 0zm0 2.5c4.136 0 7.5 3.364 7.5 7.5 0 .345-.28.625-.625.625s-.625-.28-.625-.625c0-3.446-2.804-6.25-6.25-6.25-.345 0-.625-.28-.625-.625S9.655 2.5 10 2.5zM10 5c2.757 0 5 2.243 5 5 0 .345-.28.625-.625.625s-.625-.28-.625-.625c0-2.068-1.682-3.75-3.75-3.75-.345 0-.625-.28-.625-.625S9.655 5 10 5z"/>
    </defs>
    <g fill="none" fill-rule="evenodd">
        <g>
            <g>
                <g>
                    <g>
                        <g>
                            <g>
                                <g>
                                    <g>
                                        <g transform="translate(-808 -2319) translate(0 1881) translate(0 216) translate(144 60) translate(661) translate(3 48) translate(0 112) translate(0 2)">
                                            <mask id="awn0fhfw3b" fill="#fff">
                                                <use xlink:href="#3pr1tfipca"/>
                                            </mask>
                                            <use fill="#231F20" xlink:href="#3pr1tfipca"/>
                                            <g fill="#FFF" mask="url(#awn0fhfw3b)">
                                                <path d="M0 0H20V20H0z"/>
                                            </g>
                                        </g>
                                    </g>
                                </g>
                            </g>
                        </g>
                    </g>
                </g>
            </g>
        </g>
    </g>
</svg>
