<svg width="18" height="18" viewBox="0 0 18 18" fill="none" xmlns="http://www.w3.org/2000/svg">
<path d="M10.2558 1.95807C10.3093 1.91504 10.3155 1.91504 10.2558 1.84333C10.2558 1.84333 9.8487 1.34034 9.58436 1.15492C9.19588 0.882413 8.56975 0.997155 8.21165 1.28399C7.94405 1.49833 7.06275 2.35965 7.06275 2.35965L5.52591 3.85122L3.57128 5.73002L2.0792 7.16423L1.363 7.85264C0.930303 8.26856 1.0049 8.65579 1.0049 8.65579H2.0046L4.88431 5.91647C4.88431 5.91647 5.34686 6.80567 5.86908 7.13554C6.11847 7.29307 6.79417 7.96738 8.3161 7.13554C9.13025 6.69055 9.62913 6.27502 10.2856 5.81608C10.3072 5.80099 10.6437 5.67266 10.5393 6.05989C10.5393 6.05989 9.83802 6.8487 9.25611 7.30765C8.58703 7.83533 7.54021 8.65579 7.54021 8.65579H10.7482C11.3152 8.13948 12.0463 7.50843 12.3149 7.19291C12.559 6.90607 13.0758 6.36107 13.1952 5.8591C13.2043 5.82088 13.2708 5.83138 13.2996 5.8591C13.792 6.33239 15.9805 8.65579 15.9805 8.65579H17C17 8.65579 17 8.21006 16.7613 7.96738C16.0356 7.22969 15.3574 6.58964 14.4485 5.71568C13.298 4.60921 11.8188 3.15638 11.4793 2.90464C10.9571 2.51741 8.88309 3.8799 8.36086 4.28148C8.36086 4.28148 8.04752 4.52529 7.85355 4.58266C7.55513 4.71174 7.49272 4.41908 7.65958 4.26713C8.45614 3.54177 8.38343 3.46398 10.2558 1.95807Z" fill="white" stroke="white" stroke-width="0.0298416"/>
<path d="M7.7442 16.0419C7.69071 16.085 7.68452 16.085 7.7442 16.1567C7.7442 16.1567 8.1513 16.6597 8.41564 16.8451C8.80412 17.1176 9.43025 17.0028 9.78835 16.716C10.0559 16.5017 10.9372 15.6404 10.9372 15.6404L12.4741 14.1488L14.4287 12.27L15.9208 10.8358L16.637 10.1474C17.0697 9.73144 16.9951 9.34421 16.9951 9.34421H15.9954L13.1157 12.0835C13.1157 12.0835 12.6531 11.1943 12.1309 10.8645C11.8815 10.7069 11.2058 10.0326 9.6839 10.8645C8.86975 11.3094 8.37087 11.725 7.71436 12.1839C7.69278 12.199 7.35626 12.3273 7.4607 11.9401C7.4607 11.9401 8.16198 11.1513 8.74389 10.6924C9.41297 10.1647 10.4598 9.34421 10.4598 9.34421H7.25181C6.68482 9.86052 5.9537 10.4916 5.68513 10.8071C5.44097 11.0939 4.92417 11.6389 4.8048 12.1409C4.79571 12.1791 4.7292 12.1686 4.70036 12.1409C4.20797 11.6676 2.02954 9.34421 2.02954 9.34421H1C1 9.34421 1 9.78994 1.23873 10.0326C1.96443 10.7703 2.64264 11.4104 3.55146 12.2843C4.70204 13.3908 6.1812 14.8436 6.52069 15.0954C7.04292 15.4826 9.11691 14.1201 9.63914 13.7185C9.63914 13.7185 9.95248 13.4747 10.1464 13.4173C10.4449 13.2883 10.5073 13.5809 10.3404 13.7329C9.54386 14.4582 9.61657 14.536 7.7442 16.0419Z" fill="white" stroke="white" stroke-width="0.0298416"/>
</svg>
