<svg width="16" height="16" viewBox="0 0 16 16" fill="none" xmlns="http://www.w3.org/2000/svg">
<path d="M15.0097 4.01172C14.0966 4.01172 13.2541 3.70922 12.5775 3.19891C11.8016 2.61391 11.2441 1.75578 11.0472 0.766719C10.9985 0.522344 10.9722 0.270156 10.9697 0.0117188H8.36129V7.13922L8.35817 11.0433C8.35817 12.087 7.67848 12.972 6.73629 13.2833C6.46285 13.3736 6.16754 13.4164 5.86004 13.3995C5.46754 13.378 5.09973 13.2595 4.78004 13.0683C4.09973 12.6614 3.63848 11.9233 3.62598 11.0789C3.60629 9.75922 4.67317 8.68328 5.99192 8.68328C6.25223 8.68328 6.50223 8.72578 6.73629 8.80297V6.85484V6.15453C6.48942 6.11797 6.23817 6.09891 5.9841 6.09891C4.54067 6.09891 3.19067 6.69891 2.22567 7.77984C1.49629 8.59672 1.05879 9.6389 0.991292 10.7317C0.902855 12.1673 1.42817 13.532 2.44692 14.5389C2.5966 14.6867 2.75379 14.8239 2.91817 14.9505C3.7916 15.6227 4.85942 15.987 5.9841 15.987C6.23817 15.987 6.48942 15.9683 6.73629 15.9317C7.78692 15.7761 8.75629 15.2952 9.52129 14.5389C10.4613 13.6098 10.9807 12.3764 10.9863 11.0636L10.9729 5.23359C11.4213 5.57953 11.9116 5.86578 12.4379 6.08797C13.2563 6.43328 14.1241 6.60828 15.0172 6.60797V4.71391V4.01109C15.0179 4.01172 15.0104 4.01172 15.0097 4.01172Z" fill="white"/>
</svg>
