<svg width="20" height="20" viewBox="0 0 50 50" fill="none" xmlns="http://www.w3.org/2000/svg">
<path d="M4.3572 36.8668C1.37536 31.9972 0.331089 26.2406 1.42049 20.6779C2.50988 15.1153 5.65801 10.1292 10.2737 6.65596C14.8894 3.18274 20.6552 1.46131 26.4883 1.81493C32.3214 2.16854 37.8207 4.57287 41.9534 8.57643C46.0861 12.58 48.5681 17.9074 48.9331 23.5582C49.2982 29.2091 47.5212 34.7947 43.936 39.2661C40.3508 43.7376 35.2039 46.7874 29.4617 47.8428C23.7196 48.8981 17.7773 47.8865 12.7506 44.9979L12.7507 44.9977L4.46155 47.292C4.1186 47.3869 3.75569 47.3913 3.41042 47.3046C3.06515 47.2179 2.75009 47.0434 2.49788 46.7991C2.24568 46.5547 2.06551 46.2495 1.97604 45.915C1.88657 45.5806 1.89106 45.229 1.98905 44.8968L4.35738 36.8666L4.3572 36.8668Z" stroke="white" stroke-width="2" stroke-linecap="round" stroke-linejoin="round"/>
<path d="M31.0284 38.5625C28.3972 38.5661 25.7911 38.0667 23.3595 37.0929C20.9278 36.1191 18.7184 34.6901 16.8579 32.8877C14.9973 31.0853 13.5222 28.9449 12.517 26.5893C11.5118 24.2336 10.9963 21.709 11 19.16C11.006 17.3658 11.7463 15.6471 13.0586 14.381C14.3708 13.1149 16.1479 12.4047 18 12.4063C18.3038 12.4063 18.6022 12.484 18.8649 12.6318C19.1276 12.7795 19.3454 12.9918 19.4961 13.2474L22.4189 18.2023C22.5952 18.5012 22.6861 18.8401 22.6823 19.1842C22.6785 19.5284 22.5802 19.8653 22.3974 20.1605L20.0501 23.9503C21.2577 26.5465 23.4036 28.6253 26.0836 29.7952L29.9957 27.5213C30.3003 27.3442 30.6481 27.249 31.0034 27.2453C31.3586 27.2416 31.7085 27.3297 32.0169 27.5005L37.1318 30.3319C37.3955 30.4779 37.6147 30.6888 37.7672 30.9434C37.9197 31.1979 38 31.487 38 31.7812C37.9947 33.5734 37.2594 35.2911 35.9539 36.5609C34.6485 37.8308 32.8784 38.5501 31.0284 38.5625Z" stroke="white" stroke-width="2" stroke-linecap="round" stroke-linejoin="round"/>
</svg>
